<?xml version="1.0" encoding="UTF-8" standalone="no"?>
<svg
   xmlns:dc="http://purl.org/dc/elements/1.1/"
   xmlns:cc="http://creativecommons.org/ns#"
   xmlns:rdf="http://www.w3.org/1999/02/22-rdf-syntax-ns#"
   xmlns:svg="http://www.w3.org/2000/svg"
   xmlns="http://www.w3.org/2000/svg"
   xmlns:sodipodi="http://sodipodi.sourceforge.net/DTD/sodipodi-0.dtd"
   xmlns:inkscape="http://www.inkscape.org/namespaces/inkscape"
   viewBox="0 0 1200 820"
   version="1.1"
   id="svg4"
   sodipodi:docname="draft_final.svg"
   width="1200"
   height="820"
   inkscape:version="0.92.4 5da689c313, 2019-01-14"
   inkscape:export-filename="/home/daybringer/Projects/websites/silzpyt.io/border.png"
   inkscape:export-xdpi="96"
   inkscape:export-ydpi="96">
  <metadata
     id="metadata10">
    <rdf:RDF>
      <cc:Work
         rdf:about="">
        <dc:format>image/svg+xml</dc:format>
        <dc:type
           rdf:resource="http://purl.org/dc/dcmitype/StillImage" />
        <dc:title></dc:title>
      </cc:Work>
    </rdf:RDF>
  </metadata>
  <defs
     id="defs8" />
  <sodipodi:namedview
     pagecolor="#ffffff"
     bordercolor="#666666"
     borderopacity="1"
     objecttolerance="10"
     gridtolerance="10"
     guidetolerance="10"
     inkscape:pageopacity="0"
     inkscape:pageshadow="2"
     inkscape:window-width="1366"
     inkscape:window-height="713"
     id="namedview6"
     showgrid="false"
     inkscape:zoom="0.3653385"
     inkscape:cx="630.65678"
     inkscape:cy="191.59069"
     inkscape:window-x="0"
     inkscape:window-y="0"
     inkscape:window-maximized="1"
     inkscape:current-layer="svg4" />
  <path
     style="fill:#242423;fill-opacity:1;stroke:#242423;stroke-width:8.69999981;stroke-linecap:butt;stroke-linejoin:round;stroke-miterlimit:16.5;stroke-dasharray:none;stroke-dashoffset:0;stroke-opacity:1"
     d="m 424.06035,16.516505 c -37.84921,0 -76.08801,15.565744 -114.10421,25.926443 -38.40579,10.555263 -77.44495,12.273522 -95.56878,18.19126 l -11.83395,3.062263 -7.25806,1.567252 c -15.32409,8.753806 -77.02825,65.890907 -68.29509,98.150907 8.7387,33.0764 20.98403,66.59058 17.81138,99.71562 -2.95001,33.56282 -20.7614,66.93108 -26.71708,100.20204 -5.73304,33.56282 -0.16785,66.78515 -5.90089,100.20204 -5.95568,33.07636 -23.766636,66.63923 -23.766636,100.20202 0,33.07645 17.811826,66.4933 29.667526,99.71561 12.07835,33.56287 17.64353,66.83347 20.81619,83.51756 l 2.95045,16.68455 h 53.43415 l 19.09201,2.57838 c 19.09157,2.77253 57.16299,7.63595 95.56878,18.19122 38.0162,10.36075 76.255,25.92646 114.10421,25.92646 38.40581,0 76.8116,-15.56494 114.6608,-20.7696 38.23881,-5.01014 76.25499,-0.14672 114.6608,-5.15686 38.07184,-5.20466 76.25502,-20.76999 114.66081,-23.34806 37.90487,-2.77253 76.255,7.9286 114.10421,15.5654 38.35014,7.9286 56.86357,10.43912 76.3448,13.21174 l 76.85993,2.70645 50.513,2.22561 -2.9504,-18.00792 c -3.1727,-18.53796 -8.7388,-54.60756 -17.8115,-91.10073 -8.7387,-36.01651 -20.984,-72.50992 -17.8113,-108.57943 2.95,-36.54618 20.7613,-72.88026 26.7169,-109.10867 5.7332,-36.54614 0.168,-72.72225 5.901,-109.10953 5.9558,-36.01653 23.7666,-72.56244 23.7666,-109.10861 0,-36.01653 -17.8118,-72.40403 -29.6676,-108.57945 -12.0782,-36.54616 -17.6434,-72.773932 -20.8161,-90.941088 l -2.9504,-18.167512 h -53.43413 l -18.9247,2.578392 c -19.4811,2.772577 -57.38596,7.636763 -95.7361,15.565365 C 844.29776,57.862389 805.94763,68.563569 768.04276,65.790991 729.63697,63.212979 691.45379,47.647614 653.38195,42.442948 614.97614,37.432839 576.95996,42.296266 538.72115,37.286157 500.87195,32.081491 462.46616,16.516505 424.06035,16.516505 Z M 243.978,116.92482 c 19.31679,-10.77083 65.97814,-7.01613 65.97814,-7.01613 h 114.10421 114.6608 114.6608 114.66081 114.10421 c 76.12842,-1.56513 77.1454,-0.5896 103.53422,46.63156 l 11.12659,93.22967 v 109.10861 109.10953 109.10867 c 0,0 -2.44603,44.1689 -4.79008,66.15302 -3.6858,34.568 -21.5196,67.68351 -50.56975,72.3396 -28.37686,4.54817 -59.30097,1.36859 -59.30097,1.36859 H 768.04276 653.38195 538.72115 424.06035 l -117.97518,-3.87097 c 0,0 -44.48938,3.21336 -61.86523,-8.2258 -27.083,-17.82974 -41.52884,-52.17804 -49.89233,-83.50598 -4.95462,-18.55902 0.96774,-57.61884 0.96774,-57.61884 V 463.53433 363.33229 263.13025 c 0,0 -3.49652,-64.39805 7.86941,-93.55695 8.06439,-20.6889 21.41929,-41.83463 40.81324,-52.64848 z"
     id="path2"
     inkscape:connector-curvature="0"
     sodipodi:nodetypes="sccccccccsccccccsccccccccccccscccccccccsacccccccccccssccccccaaccccaa"
     inkscape:export-filename="/home/daybringer/Projects/websites/silzpyt.io/border.png"
     inkscape:export-xdpi="96"
     inkscape:export-ydpi="96" />
</svg>
