<?xml version="1.0" encoding="UTF-8" standalone="no"?>
<svg
   xmlns:dc="http://purl.org/dc/elements/1.1/"
   xmlns:cc="http://creativecommons.org/ns#"
   xmlns:rdf="http://www.w3.org/1999/02/22-rdf-syntax-ns#"
   xmlns:svg="http://www.w3.org/2000/svg"
   xmlns="http://www.w3.org/2000/svg"
   xmlns:xlink="http://www.w3.org/1999/xlink"
   xmlns:sodipodi="http://sodipodi.sourceforge.net/DTD/sodipodi-0.dtd"
   xmlns:inkscape="http://www.inkscape.org/namespaces/inkscape"
   viewBox="0 0 1200 800"
   version="1.1"
   id="svg4"
   sodipodi:docname="nabidka_draft1.svg"
   width="1200"
   height="800"
   inkscape:version="0.92.4 5da689c313, 2019-01-14">
  <metadata
     id="metadata10">
    <rdf:RDF>
      <cc:Work
         rdf:about="">
        <dc:format>image/svg+xml</dc:format>
        <dc:type
           rdf:resource="http://purl.org/dc/dcmitype/StillImage" />
        <dc:title></dc:title>
      </cc:Work>
    </rdf:RDF>
  </metadata>
  <defs
     id="defs8">
    <linearGradient
       inkscape:collect="always"
       id="linearGradient4596">
      <stop
         style="stop-color:#32928f;stop-opacity:1"
         offset="0"
         id="stop4592" />
      <stop
         style="stop-color:#b2c963;stop-opacity:1"
         offset="1"
         id="stop4594" />
    </linearGradient>
    <radialGradient
       inkscape:collect="always"
       xlink:href="#linearGradient4596"
       id="radialGradient4606"
       gradientUnits="userSpaceOnUse"
       gradientTransform="matrix(0.75652145,-0.80029707,0.84937671,0.80291646,-227.69402,518.94624)"
       cx="544.29297"
       cy="424.0965"
       fx="544.29297"
       fy="424.0965"
       r="421.7955" />
  </defs>
  <sodipodi:namedview
     pagecolor="#ffffff"
     bordercolor="#666666"
     borderopacity="1"
     objecttolerance="10"
     gridtolerance="10"
     guidetolerance="10"
     inkscape:pageopacity="0"
     inkscape:pageshadow="2"
     inkscape:window-width="1366"
     inkscape:window-height="713"
     id="namedview6"
     showgrid="false"
     inkscape:zoom="0.35355339"
     inkscape:cx="429.50379"
     inkscape:cy="213.12119"
     inkscape:window-x="0"
     inkscape:window-y="0"
     inkscape:window-maximized="1"
     inkscape:current-layer="svg4" />
  <path
     style="fill:url(#radialGradient4606);fill-opacity:1;stroke-width:0.99999994"
     d="M 554.29297 43.953125 C 499.43718 43.815986 444.58235 68.502829 389.72656 80.525391 C 334.87076 92.730805 280.01384 92.730469 252.58594 92.730469 L 225.1582 92.730469 L 152.01758 92.730469 L 156.9082 120.1582 C 161.61665 147.58609 171.67391 202.44109 164.22266 257.29688 C 157.0457 312.15268 132.36091 367.00943 132.49805 421.86523 C 132.36091 476.72104 157.0458 531.57584 169.06836 586.43164 C 181.27377 641.28743 181.27344 696.14437 181.27344 723.57227 L 181.27344 751 L 225.1582 751 L 252.58594 751 C 280.01384 751 334.87076 750.99967 389.72656 763.20508 C 444.58235 775.22764 499.43718 799.91253 554.29297 799.77539 C 609.14877 799.91253 664.00554 775.22774 718.86133 768.05078 C 773.71713 760.59953 828.5721 770.65678 856 775.36523 L 883.42773 780.25586 L 956.56836 780.25586 L 951.67773 750.39062 C 946.96927 720.5247 936.91204 660.79243 944.36328 601.06055 C 951.54025 541.32872 976.22503 481.59712 976.08789 421.86523 C 976.22503 362.13336 951.54014 302.40179 939.51758 242.66992 C 927.31216 182.93804 927.3125 123.20578 927.3125 93.339844 L 927.3125 63.472656 L 883.42773 63.472656 L 856 68.365234 C 828.5721 73.07369 773.71713 83.130933 718.86133 75.679688 C 664.00553 68.50272 609.14877 43.815986 554.29297 43.953125 z M 225.1582 136.61523 L 252.58594 136.61523 L 389.72656 136.61523 L 554.29297 136.61523 L 718.86133 136.61523 L 856 136.61523 L 883.42773 136.61523 L 883.42773 242.66992 L 883.42773 421.86523 L 883.42773 601.06055 L 883.42773 707.11523 L 856 707.11523 L 718.86133 707.11523 L 554.29297 707.11523 L 389.72656 707.11523 L 252.58594 707.11523 L 225.1582 707.11523 L 225.1582 586.43164 L 225.1582 421.86523 L 225.1582 257.29688 L 225.1582 136.61523 z "
     id="path2" />
  <text
     xml:space="preserve"
     style="font-style:normal;font-variant:normal;font-weight:normal;font-stretch:normal;font-size:80.85070801px;line-height:1.25;font-family:Molle;-inkscape-font-specification:Molle;letter-spacing:0px;word-spacing:0px;fill:#000000;fill-opacity:1;stroke:none;stroke-width:1"
     x="551.37128"
     y="346.33051"
     id="text3760"><tspan
       sodipodi:role="line"
       x="551.37128"
       y="346.33051"
       style="font-style:italic;font-variant:normal;font-weight:normal;font-stretch:normal;font-family:Hack;-inkscape-font-specification:'Hack Italic';text-align:center;text-anchor:middle;stroke-width:1"
       id="tspan3762">Construction</tspan><tspan
       sodipodi:role="line"
       x="551.37128"
       y="450.17068"
       style="font-style:italic;font-variant:normal;font-weight:normal;font-stretch:normal;font-family:Hack;-inkscape-font-specification:'Hack Italic';text-align:center;text-anchor:middle;stroke-width:1"
       id="tspan3782">site</tspan></text>
  <flowRoot
     xml:space="preserve"
     id="flowRoot3768"
     style="fill:black;fill-opacity:1;stroke:none;font-family:Molle;font-style:normal;font-weight:normal;font-size:40px;line-height:1.25;letter-spacing:0px;word-spacing:0px;-inkscape-font-specification:Molle;font-stretch:normal;font-variant:normal"><flowRegion
       id="flowRegion3770"><rect
         id="rect3772"
         width="210.96774"
         height="137.41936"
         x="249.67741"
         y="221.29033" /></flowRegion><flowPara
       id="flowPara3774"></flowPara></flowRoot>  <text
     xml:space="preserve"
     style="font-style:normal;font-variant:normal;font-weight:normal;font-stretch:normal;font-size:40px;line-height:1.25;font-family:Molle;-inkscape-font-specification:Molle;letter-spacing:0px;word-spacing:0px;fill:#000000;fill-opacity:1;stroke:none"
     x="489.67743"
     y="331.61292"
     id="text3778"><tspan
       sodipodi:role="line"
       id="tspan3776"
       x="489.67743"
       y="365.62976"></tspan></text>
</svg>
