<?xml version="1.0" encoding="UTF-8" standalone="no"?>
<svg
   xmlns:dc="http://purl.org/dc/elements/1.1/"
   xmlns:cc="http://creativecommons.org/ns#"
   xmlns:rdf="http://www.w3.org/1999/02/22-rdf-syntax-ns#"
   xmlns:svg="http://www.w3.org/2000/svg"
   xmlns="http://www.w3.org/2000/svg"
   xmlns:sodipodi="http://sodipodi.sourceforge.net/DTD/sodipodi-0.dtd"
   xmlns:inkscape="http://www.inkscape.org/namespaces/inkscape"
   viewBox="0 0 1023.949 802.53363"
   version="1.1"
   id="mysvg"
   sodipodi:docname="rocket_and_earth.svg"
   inkscape:version="0.92.4 5da689c313, 2019-01-14"
   inkscape:export-filename="/home/daybringer/Projects/websites/silzpyt.io/border1.png"
   inkscape:export-xdpi="96"
   inkscape:export-ydpi="96"
   class="hover_hand"
   onclick="window.location = './gravitation/gravitation.html'">
  <metadata
     id="metadata10">
    <rdf:RDF>
      <cc:Work
         rdf:about="">
        <dc:format>image/svg+xml</dc:format>
        <dc:type
           rdf:resource="http://purl.org/dc/dcmitype/StillImage" />
        <dc:title />
      </cc:Work>
    </rdf:RDF>
  </metadata>
  <defs
     id="defs8">
    <marker
       inkscape:isstock="true"
       style="overflow:visible"
       id="marker1173"
       refX="0"
       refY="0"
       orient="auto"
       inkscape:stockid="Arrow2Lend">
      <path
         inkscape:connector-curvature="0"
         transform="matrix(-1.1,0,0,-1.1,-1.1,0)"
         d="M 8.7185878,4.0337352 -2.2072895,0.01601326 8.7185884,-4.0017078 c -1.7454984,2.3720609 -1.7354408,5.6174519 -6e-7,8.035443 z"
         style="fill:#242423;fill-opacity:1;fill-rule:evenodd;stroke:#242423;stroke-width:0.625;stroke-linejoin:round;stroke-opacity:1"
         id="path1171" />
    </marker>
    <inkscape:path-effect
       effect="simplify"
       id="path-effect936"
       is_visible="true"
       steps="1"
       threshold="0.00526457"
       smooth_angles="360"
       helper_size="0"
       simplify_individual_paths="false"
       simplify_just_coalesce="false"
       simplifyindividualpaths="false"
       simplifyJustCoalesce="false" />
    <marker
       inkscape:isstock="true"
       style="overflow:visible"
       id="marker3206"
       refX="0"
       refY="0"
       orient="auto"
       inkscape:stockid="Arrow2Lend">
      <path
         inkscape:connector-curvature="0"
         transform="matrix(-1.1,0,0,-1.1,-1.1,0)"
         d="M 8.7185878,4.0337352 -2.2072895,0.01601326 8.7185884,-4.0017078 c -1.7454984,2.3720609 -1.7354408,5.6174519 -6e-7,8.035443 z"
         style="fill:#242423;fill-opacity:1;fill-rule:evenodd;stroke:#242423;stroke-width:0.625;stroke-linejoin:round;stroke-opacity:1"
         id="path3204" />
    </marker>
    <inkscape:path-effect
       effect="simplify"
       id="path-effect3202"
       is_visible="true"
       steps="1"
       threshold="0.00526457"
       smooth_angles="360"
       helper_size="0"
       simplify_individual_paths="false"
       simplify_just_coalesce="false"
       simplifyindividualpaths="false"
       simplifyJustCoalesce="false" />
    <marker
       inkscape:stockid="Arrow2Lend"
       orient="auto"
       refY="0"
       refX="0"
       id="marker8314"
       style="overflow:visible"
       inkscape:isstock="true">
      <path
         id="path8312"
         style="fill:#242423;fill-opacity:1;fill-rule:evenodd;stroke:#242423;stroke-width:0.625;stroke-linejoin:round;stroke-opacity:1"
         d="M 8.7185878,4.0337352 -2.2072895,0.01601326 8.7185884,-4.0017078 c -1.7454984,2.3720609 -1.7354408,5.6174519 -6e-7,8.035443 z"
         transform="matrix(-1.1,0,0,-1.1,-1.1,0)"
         inkscape:connector-curvature="0" />
    </marker>
    <marker
       inkscape:stockid="Arrow2Lend"
       orient="auto"
       refY="0"
       refX="0"
       id="Arrow2Lend"
       style="overflow:visible"
       inkscape:isstock="true">
      <path
         id="path2001"
         style="fill:#000000;fill-opacity:1;fill-rule:evenodd;stroke:#000000;stroke-width:0.625;stroke-linejoin:round;stroke-opacity:1"
         d="M 8.7185878,4.0337352 -2.2072895,0.01601326 8.7185884,-4.0017078 c -1.7454984,2.3720609 -1.7354408,5.6174519 -6e-7,8.035443 z"
         transform="matrix(-1.1,0,0,-1.1,-1.1,0)"
         inkscape:connector-curvature="0" />
    </marker>
    <marker
       inkscape:stockid="Arrow1Lend"
       orient="auto"
       refY="0"
       refX="0"
       id="Arrow1Lend"
       style="overflow:visible"
       inkscape:isstock="true">
      <path
         id="path1983"
         d="M 0,0 5,-5 -12.5,0 5,5 Z"
         style="fill:#000000;fill-opacity:1;fill-rule:evenodd;stroke:#000000;stroke-width:1.00000003pt;stroke-opacity:1"
         transform="matrix(-0.8,0,0,-0.8,-10,0)"
         inkscape:connector-curvature="0" />
    </marker>
    <marker
       inkscape:stockid="Arrow2Lend"
       orient="auto"
       refY="0"
       refX="0"
       id="marker8314-3"
       style="overflow:visible"
       inkscape:isstock="true">
      <path
         id="path8312-5"
         style="fill:#242423;fill-opacity:1;fill-rule:evenodd;stroke:#242423;stroke-width:0.625;stroke-linejoin:round;stroke-opacity:1"
         d="M 8.7185878,4.0337352 -2.2072895,0.01601326 8.7185884,-4.0017078 c -1.7454984,2.3720609 -1.7354408,5.6174519 -6e-7,8.035443 z"
         transform="matrix(-1.1,0,0,-1.1,-1.1,0)"
         inkscape:connector-curvature="0" />
    </marker>
    <marker
       inkscape:stockid="Arrow2Lend"
       orient="auto"
       refY="0"
       refX="0"
       id="marker8314-3-9"
       style="overflow:visible"
       inkscape:isstock="true">
      <path
         id="path8312-5-1"
         style="fill:#242423;fill-opacity:1;fill-rule:evenodd;stroke:#242423;stroke-width:0.625;stroke-linejoin:round;stroke-opacity:1"
         d="M 8.7185878,4.0337352 -2.2072895,0.01601326 8.7185884,-4.0017078 c -1.7454984,2.3720609 -1.7354408,5.6174519 -6e-7,8.035443 z"
         transform="matrix(-1.1,0,0,-1.1,-1.1,0)"
         inkscape:connector-curvature="0" />
    </marker>
    <marker
       inkscape:stockid="Arrow2Lend"
       orient="auto"
       refY="0"
       refX="0"
       id="marker8314-3-9-9"
       style="overflow:visible"
       inkscape:isstock="true">
      <path
         id="path8312-5-1-3"
         style="fill:#242423;fill-opacity:1;fill-rule:evenodd;stroke:#242423;stroke-width:0.625;stroke-linejoin:round;stroke-opacity:1"
         d="M 8.7185878,4.0337352 -2.2072895,0.01601326 8.7185884,-4.0017078 c -1.7454984,2.3720609 -1.7354408,5.6174519 -6e-7,8.035443 z"
         transform="matrix(-1.1,0,0,-1.1,-1.1,0)"
         inkscape:connector-curvature="0" />
    </marker>
    <marker
       inkscape:stockid="Arrow2Lend"
       orient="auto"
       refY="0"
       refX="0"
       id="marker8314-3-9-3"
       style="overflow:visible"
       inkscape:isstock="true">
      <path
         id="path8312-5-1-6"
         style="fill:#242423;fill-opacity:1;fill-rule:evenodd;stroke:#242423;stroke-width:0.625;stroke-linejoin:round;stroke-opacity:1"
         d="M 8.7185878,4.0337352 -2.2072895,0.01601326 8.7185884,-4.0017078 c -1.7454984,2.3720609 -1.7354408,5.6174519 -6e-7,8.035443 z"
         transform="matrix(-1.1,0,0,-1.1,-1.1,0)"
         inkscape:connector-curvature="0" />
    </marker>
  </defs>
  <sodipodi:namedview
     pagecolor="#ffffff"
     bordercolor="#666666"
     borderopacity="1"
     objecttolerance="10"
     gridtolerance="10"
     guidetolerance="10"
     inkscape:pageopacity="0"
     inkscape:pageshadow="2"
     inkscape:window-width="1920"
     inkscape:window-height="1025"
     id="namedview6"
     showgrid="false"
     inkscape:zoom="1.0333333"
     inkscape:cx="624.42665"
     inkscape:cy="261.60214"
     inkscape:window-x="0"
     inkscape:window-y="0"
     inkscape:window-maximized="1"
     inkscape:current-layer="mysvg"
     fit-margin-top="0"
     fit-margin-left="0"
     fit-margin-right="0"
     fit-margin-bottom="0" />
  <text
     xml:space="preserve"
     style="font-style:normal;font-variant:normal;font-weight:normal;font-stretch:normal;font-size:48px;line-height:1.25;font-family:Hack;-inkscape-font-specification:Hack;letter-spacing:0px;word-spacing:0px;fill:#000000;fill-opacity:1;stroke:none"
     x="408.98749"
     y="530.57544"
     id="text11246"><tspan
       sodipodi:role="line"
       id="tspan11244"
       x="408.98749"
       y="573.04419" /></text>
  <path
     style="fill:#242423;fill-opacity:1;stroke:#242423;stroke-width:8.69999981;stroke-linecap:butt;stroke-linejoin:round;stroke-miterlimit:16.5;stroke-dasharray:none;stroke-dashoffset:0;stroke-opacity:1"
     d="m 339.98332,4.3499999 c -37.84921,0 -76.08801,15.5657441 -114.10421,25.9264431 -38.40579,10.555263 -77.44495,12.273522 -95.56878,18.19126 l -11.83395,3.062263 -7.25806,1.567252 c -15.324094,8.753806 -77.028254,65.890902 -68.295094,98.150902 8.7387,33.0764 20.98403,66.59058 17.81138,99.71562 -2.95001,33.56282 -20.7614,66.93108 -26.71708,100.20204 -5.73304,33.56282 -0.16785,66.78515 -5.90089,100.20204 -5.95568,33.07636 -23.7666361,66.63923 -23.7666361,100.20202 0,33.07645 17.8118261,66.4933 29.6675261,99.71561 12.07835,33.56287 17.64353,66.83347 20.81619,83.51756 0.98348,5.56152 1.96697,11.12303 2.95045,16.68455 h 53.434154 c -3.51148,0.85946 10.83823,1.71892 19.09201,2.57838 19.09157,2.77253 57.16299,7.63595 95.56878,18.19122 38.0162,10.36075 76.255,25.92646 114.10421,25.92646 38.40581,0 76.8116,-15.56494 114.6608,-20.7696 38.23881,-5.01014 76.25499,-0.14672 114.6608,-5.15686 38.07184,-5.20466 76.25502,-20.76999 114.66081,-23.34806 37.90487,-2.77253 76.255,7.9286 114.10421,15.5654 38.35014,7.9286 56.86357,10.43912 76.3448,13.21174 l 76.85993,2.70645 c 16.8377,0.74187 33.6753,1.48374 50.51303,2.22561 -0.9835,-6.00264 -1.96693,-12.00528 -2.95043,-18.00792 -3.1727,-18.53796 -8.7388,-54.60756 -17.8115,-91.10073 -8.7387,-36.01651 -20.984,-72.50992 -17.8113,-108.57943 2.95,-36.54618 20.7613,-72.88026 26.7169,-109.10867 5.7332,-36.54614 0.168,-72.72225 5.901,-109.10953 5.95583,-36.01653 23.76663,-72.56244 23.76663,-109.10861 0,-36.01653 -17.8118,-72.40403 -29.66763,-108.57945 -12.0782,-36.546155 -17.6434,-72.773927 -20.8161,-90.941083 -0.9835,-6.055837 -1.9669,-12.111675 -2.9504,-18.167512 h -53.43413 l -18.9247,2.578392 c -19.4811,2.772577 -57.38596,7.636763 -95.7361,15.565365 C 760.22073,45.695884 721.8706,56.397064 683.96573,53.624486 645.55994,51.046474 607.37676,35.481109 569.30492,30.276443 530.89911,25.266334 492.88293,30.129761 454.64412,25.119652 416.79492,19.914986 378.38913,4.3499999 339.98332,4.3499999 Z M 154.09452,98.467995 c 21.99271,-2.33871 77.85639,-20.161294 99.84911,-22.500004 47.71215,-11.612903 60.5856,-14.032258 98.62034,-14.032258 38.22026,0 67.73085,29.032262 105.95112,29.032262 38.22026,0 75.95666,-5.806455 114.17693,-5.806455 38.22027,0 73.05344,12.580645 111.27371,12.580645 38.03474,0 96.39205,-15 134.42679,-15 76.12842,-1.56513 56.82282,14.4104 83.21164,61.631555 14.35401,28.6572 22.88731,59.73376 26.59621,90.81032 0,36.36953 -21.31046,72.05477 -21.31046,108.42431 l -13.31947,106.05451 c 0,36.36955 -6.84297,40.57716 3.42148,117.32023 l 9.64838,137.12403 c -36.19012,0.22809 -243.12675,-8.30004 -108.57035,0.68429 -39.48635,-9.67742 -76.06948,0 -114.10422,0 -107.41382,18.87097 -122.40828,18.3871 -160.62855,18.3871 -38.22027,0 -71.60183,10.16129 -109.82209,10.16129 -38.22027,0 -48.37602,-2.90323 -103.53177,-7.25807 -39.32506,-1.29032 -21.55335,-0.64516 -87.97518,-25.16129 L 110.78807,686.88821 c 0,0 12.97029,-48.22195 -0.53749,-77.69953 -23.025034,-52.43649 -26.580984,-84.71209 -9.67742,-157.82086 8.70968,-52.75552 11.6129,-43.57555 10.64516,-100.20204 V 250.96374 c 9.6942,-26.39557 -1.90192,-69.72663 7.79229,-96.1222 6.53334,-22.33957 18.38927,-41.29205 35.08391,-56.373545 z"
     id="path2"
     inkscape:connector-curvature="0"
     sodipodi:nodetypes="sccccccccsccccccsccccccccccccscccccccccscccccccccccccccccccccccccc"
     inkscape:export-filename="/home/daybringer/Projects/websites/silzpyt.io/border.png"
     inkscape:export-xdpi="96"
     inkscape:export-ydpi="96" />
  <text
     xml:space="preserve"
     style="font-style:normal;font-variant:normal;font-weight:normal;font-stretch:normal;font-size:40px;line-height:1.25;font-family:Molle;-inkscape-font-specification:Molle;letter-spacing:0px;word-spacing:0px;fill:#242423;fill-opacity:1;stroke:none"
     x="241.28961"
     y="280.68152"
     id="text1259"><tspan
       sodipodi:role="line"
       id="tspan1257"
       x="241.28961"
       y="280.68152"
       style="font-style:normal;font-variant:normal;font-weight:bold;font-stretch:normal;font-size:74.66666412px;font-family:monospace;-inkscape-font-specification:'monospace Bold';fill:#242423;fill-opacity:1">Raketa a Země</tspan></text>
  <g
     id="earth"
     inkscape:export-xdpi="96"
     inkscape:export-ydpi="96"
     transform="matrix(2.0495675,0,0,2.0495675,296.4604,162.54024)"
     style="stroke-width:1.84406102">
    <circle
       r="34.017857"
       cy="159.43892"
       cx="102.70343"
       id="path10"
       style="opacity:1;fill:none;fill-opacity:1;fill-rule:nonzero;stroke:#242423;stroke-width:2.43953896;stroke-linecap:square;stroke-linejoin:miter;stroke-miterlimit:4;stroke-dasharray:none;stroke-opacity:1;paint-order:normal" />
    <g
       style="stroke-width:4.57979918"
       transform="matrix(0.10995739,0,0,0.10321866,66.75097,125.69306)"
       id="g1251">
      <path
         style="fill:#25be5c;fill-opacity:1;stroke:none;stroke-width:4.57979918px;stroke-linecap:butt;stroke-linejoin:miter;stroke-opacity:1"
         d="m 263.96611,309.99097 9.4757,-4.06102 3.38418,-9.13729 c 0,0 -1.35367,-6.76836 -3.38418,-8.79887 -2.03051,-2.03051 -3.38418,-5.41469 -5.41469,-6.76836 -2.0305,-1.35367 -4.06101,-3.38418 -5.07627,-2.03051 -1.01525,1.35367 -2.36892,1.35367 -2.36892,3.04576 0,1.6921 4.06101,3.7226 4.06101,7.10678 0,3.38419 0,5.75311 0,8.12204 0,2.36893 -0.67683,12.52147 -0.67683,12.52147 z"
         id="path1214"
         inkscape:connector-curvature="0" />
      <path
         style="fill:#25be5c;fill-opacity:1;stroke:none;stroke-width:4.57979918px;stroke-linecap:butt;stroke-linejoin:miter;stroke-opacity:1"
         d="m 237.23108,284.60961 12.52147,-13.53672 -16.24407,-1.35367 z"
         id="path1216"
         inkscape:connector-curvature="0" />
      <path
         style="fill:#25be5c;fill-opacity:1;stroke:none;stroke-width:4.57979918px;stroke-linecap:butt;stroke-linejoin:miter;stroke-opacity:1"
         d="m 228.77063,276.14916 c 0,0 -6.42995,-9.47571 -2.70735,-11.1678 3.7226,-1.69209 -18.61299,-0.33842 -18.61299,-0.33842 0,0 -5.41469,2.03051 -6.42995,5.07628 -1.01525,3.04576 12.18306,6.76836 12.18306,7.44519 0,0.67684 15.56723,-1.01525 15.56723,-1.01525 z"
         id="path1218"
         inkscape:connector-curvature="0" />
      <path
         style="fill:#25be5c;fill-opacity:1;stroke:none;stroke-width:4.57979918px;stroke-linecap:butt;stroke-linejoin:miter;stroke-opacity:1"
         d="m 189.85255,270.05763 7.10678,-9.81412 c 0,0 -22.3356,-26.05819 -31.13447,-23.35085 -8.79887,2.70735 -10.49096,6.76836 -10.15254,8.12203 0.33842,1.35368 38.91808,19.62825 34.18023,25.04294 z"
         id="path1220"
         inkscape:connector-curvature="0" />
      <g
         style="stroke-width:4.57979918"
         id="g1229">
        <path
           sodipodi:nodetypes="cccccccccccccsccsccscccccccccsccccccsccscccccccccscccscscccsscccccccccccscccccccccsccscscssscssccsscssccccccccscsscsscsccsssssssscscsssssssssccsssscccsscscssscscccsssssccccccscccccsccc"
           inkscape:connector-curvature="0"
           id="path407"
           d="m 260.24351,593.58533 18.27458,-25.04294 15.22881,-6.76836 h 9.81413 l 12.18305,-5.75311 12.18305,-9.47571 8.12203,-11.84463 7.4452,-13.87514 18.61299,-6.09153 c 0,0 10.82938,-6.09152 12.18306,-6.76836 1.35367,-0.67684 8.79887,-8.46045 8.79887,-8.46045 l 10.15254,-16.24407 -4.39944,-11.50622 c 0,0 -1.69209,-5.41469 0,-6.76836 1.69209,-1.35367 2.36893,-4.39943 4.39944,-5.75311 2.03051,-1.35367 6.42994,-6.09152 6.42994,-6.09152 0,0 3.38418,-4.06102 5.07627,-5.75311 1.69209,-1.69209 5.07627,-6.09152 5.07627,-6.09152 l 9.13729,-9.13729 c 0,0 2.36893,-8.12204 2.36893,-9.81413 0,-1.69209 -4.73785,-9.4757 -4.73785,-9.4757 0,0 -6.42995,-2.70735 -8.46046,-3.7226 -2.0305,-1.01526 -12.85988,-3.38418 -12.85988,-3.38418 l -25.04294,-8.12204 -19.28983,-4.06101 -15.56723,-3.7226 c 0,0 -5.07628,-2.36893 -6.42995,-3.38418 -1.35367,-1.01526 -8.79887,-9.13729 -8.79887,-9.13729 l -4.73785,-18.95142 c 0,0 -7.78362,-7.10678 -9.47571,-8.12203 -1.69209,-1.01525 -6.09152,-4.06102 -9.13729,-4.39943 -3.04576,-0.33842 -16.58248,-3.38419 -16.58248,-3.38419 l -9.81413,-1.69209 -7.4452,-10.82937 c 0,0 -7.10678,-6.42995 -8.46045,-6.76837 -1.35367,-0.33841 -16.24407,-8.12203 -16.24407,-8.12203 0,0 -10.82937,-3.38418 -12.52147,-3.38418 h -6.76836 l -14.89039,-6.42995 h -10.82938 c -2.03051,0 -8.79887,1.6921 -8.79887,1.6921 l -10.15254,4.06101 -4.39944,3.04576 -1.69209,3.38419 -6.09153,0.33841 -5.07627,-3.7226 -6.42994,1.6921 -6.42994,1.35367 -3.38419,-3.38418 c 0,0 -3.72259,-6.09153 -3.72259,-7.4452 0,-1.35367 1.01525,-12.18305 1.01525,-12.18305 l 0.67684,-11.84464 -6.09153,-10.15254 c 0,0 -7.4452,0.33842 -8.79887,0.33842 h -5.07627 c 0,0 7.78362,-12.52147 7.4452,-14.55198 -0.33842,-2.03051 1.35367,-18.27457 1.35367,-18.27457 l -19.62825,12.52146 -9.475706,3.38419 c 0,0 -6.091526,-1.01526 -6.429944,-2.70735 -0.338418,-1.69209 -2.368927,-9.13729 -2.368927,-11.84463 0,-2.70735 1.692091,-18.95142 1.692091,-18.95142 L 93.74181,202.0356 c 0,0 16.9209,-4.73786 18.27458,-5.07627 1.35367,-0.33842 8.79887,-5.75311 8.79887,-5.75311 l 13.87514,-2.03051 13.1983,5.41469 c 0,0 7.10678,5.07627 7.4452,6.42994 0.33842,1.35368 2.36893,7.10678 2.36893,7.10678 l -1.01526,7.4452 4.39944,8.12204 4.06102,-1.01526 c 0,0 0.67683,-9.47571 0.67683,-11.1678 0,-1.69209 1.35368,-17.25932 1.35368,-17.25932 l 7.44519,-14.89039 10.49096,-4.73786 c 0,0 11.1678,-3.7226 11.84464,-5.7531 0.67683,-2.03051 11.16779,-13.53673 11.16779,-13.53673 l 7.4452,-12.18305 c 0,0 13.53673,-5.07627 15.22882,-5.75311 1.69209,-0.67683 9.4757,-3.38418 9.4757,-3.38418 v -9.13729 c 0,0 5.41469,-2.0305 6.76836,-2.0305 1.35368,0 9.13729,1.35367 9.13729,1.35367 l 7.10678,3.04576 c 0,0 9.47571,0.67684 11.1678,-1.01525 1.69209,-1.69209 8.79887,-10.15255 8.79887,-10.15255 0,0 -8.79887,-2.36892 -11.50622,-2.70734 -2.70734,-0.33842 -8.12203,-5.07627 -8.12203,-5.07627 0,0 -4.73785,-4.73786 -5.07627,-7.4452 -0.33842,-2.707345 -4.06102,-7.445199 -1.69209,-7.445199 2.36893,0 3.04576,-2.030508 6.76836,0 3.7226,2.030509 6.09153,4.061017 8.46045,5.076272 2.36893,1.015254 6.09153,1.353672 7.4452,1.353672 1.35367,0 0.67684,-4.061017 5.41469,-4.737853 4.73785,-0.676836 9.47571,-0.676836 9.47571,-0.676836 0,0 -2.70735,5.076271 -3.38418,6.768364 -0.67684,1.69209 -3.7226,4.73785 -1.69209,5.07627 2.0305,0.33842 3.38418,2.70734 6.42994,3.04576 3.04576,0.33842 7.4452,3.04576 10.15254,2.36893 2.70735,-0.67684 4.73786,0.33842 4.39944,-2.36893 -0.33842,-2.70734 -1.69209,-9.814123 -3.38418,-12.521468 -1.69209,-2.707344 -4.39944,-10.152542 -6.76837,-12.521469 -2.36892,-2.368927 -9.13728,-11.506215 -9.13728,-11.506215 l -9.13729,-7.445198 -8.12204,-2.707345 -3.04576,4.061017 c 0,0 -1.69209,-3.045762 -2.70734,-4.737853 -1.01526,-1.69209 -5.75311,-7.445198 -5.75311,-7.445198 l -7.4452,-2.368926 c 0,0 -7.10678,2.030508 -7.10678,3.38418 0,1.353673 -2.70734,7.445198 -4.06102,9.814125 -1.35367,2.368927 -5.07627,6.768362 -6.42994,8.460452 -1.35367,1.692091 -5.41469,3.722599 -7.10678,5.076272 -1.69209,1.353672 -6.09153,4.061017 -6.09153,4.061017 0,0 -1.01525,0.676836 -3.04576,0.338418 -2.03051,-0.338418 -4.06102,0.338418 -4.06102,-2.707345 v -7.445198 c 0,0 -1.35367,-1.353672 -3.38418,-1.69209 -2.0305,-0.338418 -5.7531,-1.015255 -6.76836,-3.722599 -1.01525,-2.707345 -5.75311,-2.368927 -2.70734,-5.753108 3.04576,-3.384181 0.33842,-3.722599 6.76836,-6.429944 6.42994,-2.707344 4.06102,-1.69209 7.4452,-3.38418 3.38418,-1.692091 1.01525,-2.030509 6.42994,-4.061017 5.41469,-2.030509 6.09153,-3.045763 10.15254,-2.368927 4.06102,0.676836 6.42995,2.030508 7.78362,2.707345 1.35367,0.676836 1.69209,4.399435 7.78362,-0.338418 6.09152,-4.737854 6.76836,-6.768362 8.12203,-6.429944 1.35367,0.338418 2.03051,2.030508 5.75311,4.061017 3.7226,2.030508 5.7531,3.045763 8.79887,5.076271 3.04576,2.030509 1.35367,5.41469 6.09152,3.722599 4.73786,-1.69209 7.4452,-4.399435 11.50622,-6.429943 4.06101,-2.030509 6.76836,-1.353673 10.15254,-6.091526 3.38418,-4.737853 10.15254,-7.10678 4.73785,-9.475707 -5.41469,-2.368926 -5.7531,-3.722599 -14.21356,-4.399435 -8.46045,-0.676836 -11.16779,1.015255 -11.16779,-0.676836 0,-1.69209 -2.03051,-5.414689 4.73785,-5.753107 6.76836,-0.338418 15.56723,-1.353673 17.93616,-1.353673 2.36893,0 4.73785,-0.676836 7.78362,0 3.04576,0.676836 5.07627,2.368927 6.76836,2.707345 1.69209,0.338418 5.7531,1.353672 5.7531,3.384181 0,2.030508 1.01526,3.045763 0,5.753107 -1.01525,2.707345 -1.01525,1.692091 -2.0305,6.429944 -1.01526,4.737853 -2.36893,2.368927 -1.01526,5.414689 1.35367,3.045763 0.33842,3.722599 4.06102,7.10678 3.7226,3.384181 5.41469,4.737854 7.4452,5.753108 2.03051,1.015254 2.36892,1.353672 4.73785,1.353672 2.36893,0 2.03051,-0.338418 6.09153,-3.384181 4.06101,-3.045763 5.07627,-2.707344 7.78361,-5.753107 2.70735,-3.045763 4.39944,-5.076272 6.42995,-7.10678 2.0305,-2.030509 -1.01526,-2.030509 4.39943,-2.707345 5.41469,-0.676836 7.10678,-1.69209 10.49096,-1.69209 3.38418,0 4.73785,4.061017 5.75311,-1.353673 1.01525,-5.414689 6.09152,-8.122034 -3.38418,-10.152542 -9.47571,-2.030509 -8.79887,0.338418 -13.19831,-3.722599 -4.39943,-4.061017 -4.06101,-4.737853 -7.78361,-8.122034 -3.7226,-3.384181 -4.73786,-4.3994355 -7.78362,-5.7531078 -3.04576,-1.3536724 7.78362,5.7531078 -3.38418,-1.6920904 -5.13754,-3.4250276 0,0 0,0 0,0 -216.18743,15.6106702 -263.904371,157.4078492 -47.716951,141.79718 5.691369,104.52775 5.691369,104.52775 0,0 -15.228814,-8.79887 -10.829379,-7.4452 4.399435,1.35368 7.783616,6.42995 10.829379,7.4452 3.045763,1.01526 11.167797,5.41469 11.167797,7.4452 0,2.03051 0.676836,9.47571 5.076271,10.49096 4.399434,1.01525 12.183054,1.35367 14.551974,1.69209 2.36893,0.33842 1.01526,11.1678 4.06102,14.8904 3.04576,3.7226 7.78362,16.58248 10.82938,19.96666 3.04576,3.38418 10.82938,8.12204 14.55198,8.79887 3.7226,0.67684 10.49096,-0.67683 11.84463,0 1.35367,0.67684 4.39944,18.613 4.39944,18.613 0,0 -1.35368,4.73785 -1.69209,8.12203 -0.33842,3.38418 -12.18306,15.90565 -12.18306,15.90565 0,0 -4.39943,12.52147 -4.73785,13.87514 -0.33842,1.35368 -3.38418,11.84464 -3.38418,13.53673 0,1.69209 49.40904,70.39096 49.40904,70.39096 l 28.76554,33.50339 v 49.40904 l 5.75311,33.50339 c 0,0 12.85988,13.87514 14.55197,14.8904 1.69209,1.01525 4.73786,10.49096 8.12204,10.82938 3.38418,0.33842 8.12203,0.33842 8.12203,0.33842 0,0 4.39944,-1.35368 5.07627,-5.07628 0.67684,-3.72259 2.36893,-16.24406 2.36893,-16.24406 z"
           style="fill:#25be5c;fill-opacity:1;stroke:none;stroke-width:4.57979918px;stroke-linecap:butt;stroke-linejoin:miter;stroke-opacity:1" />
        <path
           inkscape:connector-curvature="0"
           id="path1222"
           d="m 571.92156,499.18348 c 0,0 60.30303,-81.36123 57.91005,-153.15055 -2.39298,-71.78931 -6.70033,-90.93313 -7.17893,-93.32611 -0.47859,-2.39298 -38.28764,-91.89032 -38.28764,-91.89032 l -6.70033,10.52909 -26.32275,-19.14381 -16.27225,0.47859 -13.40067,4.78596 c 0,0 -6.70034,5.26455 -9.57191,9.57191 -2.87157,4.30735 -5.26455,8.61471 -5.26455,8.61471 0,0 3.35017,2.87158 4.30736,8.13613 0.95719,5.26455 3.82876,7.17893 1.91438,10.5291 -1.91438,3.35016 -5.26455,1.91438 -8.13612,10.0505 -2.87157,8.13612 -3.35017,13.87927 -4.78595,19.62241 -1.43579,5.74315 -2.39298,9.57191 -0.9572,12.92208 1.43579,3.35017 3.35017,10.05051 5.26455,13.40067 1.91439,3.35017 2.87158,3.35017 4.30736,8.61472 1.43579,5.26455 4.78596,3.35017 1.91439,12.44348 -2.87158,9.09332 -4.30736,5.26455 -3.35017,13.40068 0.95719,8.13612 -3.82877,11.96488 4.30736,16.27224 8.13612,4.30736 10.0505,6.22174 11.48629,10.05051 1.43578,3.82876 0.47859,3.82876 4.30736,10.5291 3.82876,6.70033 2.87157,11.00769 11.48629,13.87926 8.61471,2.87158 10.5291,6.70034 15.31505,6.70034 4.78596,0 5.26455,9.09331 9.09331,-2.39298 3.82877,-11.48629 -0.47859,-12.92207 6.70034,-13.40067 7.17893,-0.47859 10.5291,4.30736 13.87927,4.30736 3.35017,0 6.70034,-0.95719 6.70034,-7.17893 0,-6.22174 -5.26455,-6.70034 1.91438,-6.22174 7.17893,0.47859 11.00769,0 12.92207,5.74314 1.91439,5.74315 3.35017,5.74315 2.39298,14.35787 -0.95719,8.61471 -2.39298,9.09331 -0.95719,15.31505 1.43579,6.22174 1.91438,34.93747 1.91438,39.72342 0,4.78596 0.95719,7.65753 -0.47859,12.92208 -1.43579,5.26455 -0.4786,6.70034 -2.87158,12.92208 -2.39297,6.22174 -3.82876,6.70033 -6.22174,14.35786 -2.39297,7.65753 -1.43578,5.74315 -5.74314,15.31506 -4.30736,9.5719 -4.30736,12.44348 -7.17893,19.14381 -2.87158,6.70034 0,3.82877 -4.30736,12.92208 -4.30736,9.09331 -10.05051,19.14382 -10.05051,19.14382 z"
           style="fill:#25be5c;fill-opacity:1;stroke:none;stroke-width:4.57979918px;stroke-linecap:butt;stroke-linejoin:miter;stroke-opacity:1" />
        <path
           inkscape:connector-curvature="0"
           id="path1224"
           d="m 563.78544,133.05796 c 0,0 -29.67292,-39.244828 -56.47426,-60.781623 -26.80135,-21.536795 -25.84416,-20.101009 -25.84416,-20.101009 0,0 9.57191,7.657527 9.57191,11.007695 0,3.350168 0,5.26455 0,7.657527 0,2.392978 1.91438,4.307359 -1.91438,5.743146 -3.82876,1.435786 -6.70034,-7.178932 -5.26455,2.392977 1.43579,9.571909 1.91438,10.5291 3.82876,13.879268 1.91439,3.350168 2.87158,5.26455 4.78596,8.136119 1.91438,2.87158 4.78595,3.82877 5.74314,7.17894 0.95719,3.35016 2.87158,3.35016 2.87158,7.17893 0,3.82876 4.78595,9.09331 -1.43579,7.17893 -6.22174,-1.91438 -8.61472,-4.78596 -12.44348,-4.78596 -3.82877,0 -5.26455,-2.39297 -6.22174,0.9572 -0.95719,3.35016 -3.82877,6.70033 -0.4786,10.0505 3.35017,3.35017 3.82877,4.78595 6.70034,8.13612 2.87157,3.35017 5.74314,4.78596 7.65753,8.13613 1.91438,3.35016 -5.26455,7.17893 3.82876,8.61471 9.09331,1.43579 10.0505,1.43579 14.83646,-1.91438 4.78595,-3.35017 7.65753,2.39298 7.65753,-7.65753 0,-10.0505 -2.39298,-17.22943 -2.39298,-23.92977 0,-6.70033 -1.43579,-6.70033 1.43578,-10.0505 2.87158,-3.35017 2.87158,-3.35017 5.26455,-4.78596 2.39298,-1.43578 4.30736,-3.82876 8.13613,2.39298 3.82876,6.22174 7.65752,10.0505 10.5291,11.48629 2.87157,1.43579 5.26455,1.43579 8.61471,3.82876 3.35017,2.39298 11.0077,10.05051 11.0077,10.05051 z"
           style="fill:#25be5c;fill-opacity:1;stroke:none;stroke-width:4.57979918px;stroke-linecap:butt;stroke-linejoin:miter;stroke-opacity:1" />
      </g>
    </g>
  </g>
  <g
     id="rocket"
     transform="matrix(0.80600341,0,0,0.80600341,-286.4862,100.49782)"
     style="stroke-width:1.24068964">
    <g
       id="g1573"
       style="stroke-width:1.24068964">
      <g
         id="g1556"
         transform="translate(43.237106,-59.533829)"
         style="stroke-width:1.24068964">
        <path
           id="path1415"
           d="m 729.8418,475.4375 c -4.13582,0.005 -23.01443,26.63213 -27.95508,45.125 -10.90532,40.81862 0.28125,130.30664 0.28125,130.30664 l 18.62305,0.16211 -7.72071,22.7832 h 32.41992 l -6.76562,-22.62695 18.14648,0.1582 c 0,0 10.41178,-89.25805 -0.16601,-130.19726 -4.75636,-18.40849 -22.72747,-45.71594 -26.86328,-45.71094 z"
           style="opacity:1;fill:#242423;fill-opacity:1;fill-rule:nonzero;stroke:none;stroke-width:3.22579265;stroke-linecap:square;stroke-linejoin:miter;stroke-miterlimit:4;stroke-dasharray:none;stroke-opacity:1;paint-order:normal"
           inkscape:connector-curvature="0" />
        <circle
           r="14.274194"
           cy="527.93683"
           cx="729.28088"
           id="path1423"
           style="opacity:1;fill:#25be5c;fill-opacity:1;fill-rule:nonzero;stroke:none;stroke-width:3.22579265;stroke-linecap:square;stroke-linejoin:miter;stroke-miterlimit:4;stroke-dasharray:none;stroke-opacity:1;paint-order:normal" />
      </g>
      <g
         id="g1565"
         style="stroke-width:1.24068964">
        <path
           sodipodi:nodetypes="ccccc"
           inkscape:connector-curvature="0"
           id="rect1558"
           d="m 720.22246,546.36468 27.02973,-20.52891 v 45.84789 h -27.37188 z"
           style="opacity:1;fill:#242423;fill-opacity:1;fill-rule:nonzero;stroke:none;stroke-width:3.22579265;stroke-linecap:square;stroke-linejoin:miter;stroke-miterlimit:4;stroke-dasharray:none;stroke-opacity:1;paint-order:normal" />
        <path
           style="opacity:1;fill:#242423;fill-opacity:1;fill-rule:nonzero;stroke:none;stroke-width:3.22579265;stroke-linecap:square;stroke-linejoin:miter;stroke-miterlimit:4;stroke-dasharray:none;stroke-opacity:1;paint-order:normal"
           d="m 824.81327,546.36468 -27.02973,-20.52891 v 45.84789 h 27.37188 z"
           id="path1561"
           inkscape:connector-curvature="0"
           sodipodi:nodetypes="ccccc" />
      </g>
    </g>
  </g>
</svg>
