<?xml version="1.0" encoding="UTF-8" standalone="no"?>
<svg
   xmlns:dc="http://purl.org/dc/elements/1.1/"
   xmlns:cc="http://creativecommons.org/ns#"
   xmlns:rdf="http://www.w3.org/1999/02/22-rdf-syntax-ns#"
   xmlns:svg="http://www.w3.org/2000/svg"
   xmlns="http://www.w3.org/2000/svg"
   xmlns:sodipodi="http://sodipodi.sourceforge.net/DTD/sodipodi-0.dtd"
   xmlns:inkscape="http://www.inkscape.org/namespaces/inkscape"
   viewBox="0 0 1200 820"
   version="1.1"
   id="svg4"
   sodipodi:docname="template.svg"
   width="1200"
   height="820"
   inkscape:version="0.92.4 5da689c313, 2019-01-14"
   inkscape:export-filename="/home/daybringer/Projects/websites/silzpyt.io/border1.png"
   inkscape:export-xdpi="96"
   inkscape:export-ydpi="96">
  <metadata
     id="metadata10">
    <rdf:RDF>
      <cc:Work
         rdf:about="">
        <dc:format>image/svg+xml</dc:format>
        <dc:type
           rdf:resource="http://purl.org/dc/dcmitype/StillImage" />
        <dc:title></dc:title>
      </cc:Work>
    </rdf:RDF>
  </metadata>
  <defs
     id="defs8" />
  <sodipodi:namedview
     pagecolor="#ffffff"
     bordercolor="#666666"
     borderopacity="1"
     objecttolerance="10"
     gridtolerance="10"
     guidetolerance="10"
     inkscape:pageopacity="0"
     inkscape:pageshadow="2"
     inkscape:window-width="1366"
     inkscape:window-height="713"
     id="namedview6"
     showgrid="false"
     inkscape:zoom="0.51666666"
     inkscape:cx="426.12701"
     inkscape:cy="284.57409"
     inkscape:window-x="0"
     inkscape:window-y="0"
     inkscape:window-maximized="1"
     inkscape:current-layer="svg4" />
  <path
     style="fill:#242423;fill-opacity:1;stroke:#242423;stroke-width:8.69999981;stroke-linecap:butt;stroke-linejoin:round;stroke-miterlimit:16.5;stroke-dasharray:none;stroke-dashoffset:0;stroke-opacity:1"
     d="m 424.06035,16.516505 c -37.84921,0 -76.08801,15.565744 -114.10421,25.926443 -38.40579,10.555263 -77.44495,12.273522 -95.56878,18.19126 l -11.83395,3.062263 -7.25806,1.567252 c -15.32409,8.753806 -77.02825,65.890907 -68.29509,98.150907 8.7387,33.0764 20.98403,66.59058 17.81138,99.71562 -2.95001,33.56282 -20.7614,66.93108 -26.71708,100.20204 -5.73304,33.56282 -0.16785,66.78515 -5.90089,100.20204 -5.95568,33.07636 -23.766636,66.63923 -23.766636,100.20202 0,33.07645 17.811826,66.4933 29.667526,99.71561 12.07835,33.56287 17.64353,66.83347 20.81619,83.51756 0.98348,5.56152 1.96697,11.12303 2.95045,16.68455 h 53.43415 c -3.51148,0.85946 10.83823,1.71892 19.09201,2.57838 19.09157,2.77253 57.16299,7.63595 95.56878,18.19122 38.0162,10.36075 76.255,25.92646 114.10421,25.92646 38.40581,0 76.8116,-15.56494 114.6608,-20.7696 38.23881,-5.01014 76.25499,-0.14672 114.6608,-5.15686 38.07184,-5.20466 76.25502,-20.76999 114.66081,-23.34806 37.90487,-2.77253 76.255,7.9286 114.10421,15.5654 38.35014,7.9286 56.86357,10.43912 76.3448,13.21174 l 76.85993,2.70645 c 16.8377,0.74187 33.6753,1.48374 50.513,2.22561 -0.9835,-6.00264 -1.9669,-12.00528 -2.9504,-18.00792 -3.1727,-18.53796 -8.7388,-54.60756 -17.8115,-91.10073 -8.7387,-36.01651 -20.984,-72.50992 -17.8113,-108.57943 2.95,-36.54618 20.7613,-72.88026 26.7169,-109.10867 5.7332,-36.54614 0.168,-72.72225 5.901,-109.10953 5.9558,-36.01653 23.7666,-72.56244 23.7666,-109.10861 0,-36.01653 -17.8118,-72.40403 -29.6676,-108.57945 -12.0782,-36.54616 -17.6434,-72.773932 -20.8161,-90.941088 -0.9835,-6.055837 -1.9669,-12.111675 -2.9504,-18.167512 h -53.43413 l -18.9247,2.578392 c -19.4811,2.772577 -57.38596,7.636763 -95.7361,15.565365 C 844.29776,57.862389 805.94763,68.563569 768.04276,65.790991 729.63697,63.212979 691.45379,47.647614 653.38195,42.442948 614.97614,37.432839 576.95996,42.296266 538.72115,37.286157 500.87195,32.081491 462.46616,16.516505 424.06035,16.516505 Z M 238.17155,110.6345 c 21.99271,-2.33871 77.85639,-20.161294 99.84911,-22.500004 47.71215,-11.612903 60.5856,-14.032258 98.62034,-14.032258 38.22026,0 67.73085,29.032262 105.95112,29.032262 38.22026,0 75.95666,-5.806455 114.17693,-5.806455 38.22027,0 73.05344,12.580645 111.27371,12.580645 38.03474,0 96.39205,-15 134.42679,-15 76.12842,-1.56513 56.82282,14.4104 83.21164,61.63156 14.35401,28.6572 22.88731,59.73376 26.59621,90.81032 0,36.36953 -21.31046,72.05477 -21.31046,108.42431 l -13.31947,106.05451 c 0,36.36955 -6.84297,40.57716 3.42148,117.32023 l 9.64838,137.12403 c -36.19012,0.22809 -243.12675,-8.30004 -108.57035,0.68429 -39.48635,-9.67742 -76.06948,0 -114.10422,0 -107.41382,18.87097 -122.40828,18.3871 -160.62855,18.3871 -38.22027,0 -71.60183,10.16129 -109.82209,10.16129 -38.22027,0 -48.37602,-2.90323 -103.53177,-7.25807 -39.32506,-1.29032 -21.55335,-0.64516 -87.97518,-25.16129 L 194.8651,699.05472 c 0,0 12.97029,-48.22195 -0.53749,-77.69953 -23.02503,-52.43649 -26.58098,-84.71209 -9.67742,-157.82086 8.70968,-52.75552 11.6129,-43.57555 10.64516,-100.20204 V 263.13025 c 9.6942,-26.39557 -1.90192,-69.72663 7.79229,-96.1222 6.53334,-22.33957 18.38927,-41.29205 35.08391,-56.37355 z"
     id="path2"
     inkscape:connector-curvature="0"
     sodipodi:nodetypes="sccccccccsccccccsccccccccccccscccccccccscccccccccccccccccccccccccc"
     inkscape:export-filename="/home/daybringer/Projects/websites/silzpyt.io/border.png"
     inkscape:export-xdpi="96"
     inkscape:export-ydpi="96" />
</svg>
