<?xml version="1.0" encoding="UTF-8" standalone="no"?>
<svg
   xmlns:dc="http://purl.org/dc/elements/1.1/"
   xmlns:cc="http://creativecommons.org/ns#"
   xmlns:rdf="http://www.w3.org/1999/02/22-rdf-syntax-ns#"
   xmlns:svg="http://www.w3.org/2000/svg"
   xmlns="http://www.w3.org/2000/svg"
   xmlns:sodipodi="http://sodipodi.sourceforge.net/DTD/sodipodi-0.dtd"
   xmlns:inkscape="http://www.inkscape.org/namespaces/inkscape"
   viewBox="0 0 1023.949 802.53363"
   version="1.1"
   id="mySvg"
   sodipodi:docname="work_progress.svg"
   inkscape:version="0.92.4 5da689c313, 2019-01-14"
   inkscape:export-filename="/home/daybringer/Projects/websites/silzpyt.io/border1.png"
   inkscape:export-xdpi="96"
   inkscape:export-ydpi="96"
   class="hover_hand">
  <metadata
     id="metadata10">
    <rdf:RDF>
      <cc:Work
         rdf:about="">
        <dc:format>image/svg+xml</dc:format>
        <dc:type
           rdf:resource="http://purl.org/dc/dcmitype/StillImage" />
        <dc:title />
      </cc:Work>
    </rdf:RDF>
  </metadata>
  <defs
     id="defs8" />
  <sodipodi:namedview
     pagecolor="#ffffff"
     bordercolor="#666666"
     borderopacity="1"
     objecttolerance="10"
     gridtolerance="10"
     guidetolerance="10"
     inkscape:pageopacity="0"
     inkscape:pageshadow="2"
     inkscape:window-width="1366"
     inkscape:window-height="713"
     id="namedview6"
     showgrid="false"
     inkscape:zoom="1.461354"
     inkscape:cx="497.60239"
     inkscape:cy="335.69966"
     inkscape:window-x="0"
     inkscape:window-y="0"
     inkscape:window-maximized="1"
     inkscape:current-layer="svg4"
     inkscape:snap-global="false"
     fit-margin-top="0"
     fit-margin-left="0"
     fit-margin-right="0"
     fit-margin-bottom="0" />
  <g
     id="crane_platform"
     style="fill:#25be5c;fill-opacity:0.98611109"
     transform="translate(-84.077034,-12.166505)">
    <rect
       y="55.573845"
       x="720.91705"
       height="121.4622"
       width="4.8387098"
       id="rect1429"
       style="opacity:1;fill:#25be5c;fill-opacity:0.98611109;fill-rule:nonzero;stroke:none;stroke-width:0;stroke-linecap:square;stroke-linejoin:miter;stroke-miterlimit:4;stroke-dasharray:none;stroke-opacity:1;paint-order:normal" />
    <rect
       y="242.25803"
       x="591.29034"
       height="28.064541"
       width="262.25803"
       id="rect1427"
       style="opacity:1;fill:#25be5c;fill-opacity:0.98611109;fill-rule:nonzero;stroke:none;stroke-width:0;stroke-linecap:square;stroke-linejoin:miter;stroke-miterlimit:4;stroke-dasharray:none;stroke-opacity:1;paint-order:normal" />
    <rect
       transform="matrix(0.43567718,0.90010299,-0.87695508,0.48057235,0,0)"
       y="-575.40338"
       x="500.19879"
       height="148.33209"
       width="3.8637695"
       id="rect1433"
       style="opacity:1;fill:#25be5c;fill-opacity:0.98611109;fill-rule:nonzero;stroke:none;stroke-width:0;stroke-linecap:square;stroke-linejoin:miter;stroke-miterlimit:4;stroke-dasharray:none;stroke-opacity:1;paint-order:normal" />
    <rect
       style="opacity:1;fill:#25be5c;fill-opacity:0.98611109;fill-rule:nonzero;stroke:none;stroke-width:0;stroke-linecap:square;stroke-linejoin:miter;stroke-miterlimit:4;stroke-dasharray:none;stroke-opacity:1;paint-order:normal"
       id="rect1437"
       width="3.6979625"
       height="144.26633"
       x="191.44437"
       y="-871.22382"
       transform="matrix(0.43567718,-0.90010299,-0.87695508,-0.48057235,0,0)" />
  </g>
  <path
     style="fill:#242423;fill-opacity:1;stroke:#242423;stroke-width:8.69999981;stroke-linecap:butt;stroke-linejoin:round;stroke-miterlimit:16.5;stroke-dasharray:none;stroke-dashoffset:0;stroke-opacity:1"
     d="m 339.98332,4.3499999 c -37.84921,0 -76.08801,15.5657441 -114.10421,25.9264431 -38.40579,10.555263 -77.44495,12.273522 -95.56878,18.19126 l -11.83395,3.062263 -7.25806,1.567252 c -15.324094,8.753806 -77.028254,65.890902 -68.295094,98.150902 8.7387,33.0764 20.98403,66.59058 17.81138,99.71562 -2.95001,33.56282 -20.7614,66.93108 -26.71708,100.20204 -5.73304,33.56282 -0.16785,66.78515 -5.90089,100.20204 -5.95568,33.07636 -23.7666361,66.63923 -23.7666361,100.20202 0,33.07645 17.8118261,66.4933 29.6675261,99.71561 12.07835,33.56287 17.64353,66.83347 20.81619,83.51756 0.98348,5.56152 1.96697,11.12303 2.95045,16.68455 h 53.434154 c -3.51148,0.85946 10.83823,1.71892 19.09201,2.57838 19.09157,2.77253 57.16299,7.63595 95.56878,18.19122 38.0162,10.36075 76.255,25.92646 114.10421,25.92646 38.40581,0 76.8116,-15.56494 114.6608,-20.7696 38.23881,-5.01014 76.25499,-0.14672 114.6608,-5.15686 38.07184,-5.20466 76.25502,-20.76999 114.66081,-23.34806 37.90487,-2.77253 76.255,7.9286 114.10421,15.5654 38.35014,7.9286 56.86357,10.43912 76.3448,13.21174 l 76.85993,2.70645 c 16.8377,0.74187 33.6753,1.48374 50.51303,2.22561 -0.9835,-6.00264 -1.96693,-12.00528 -2.95043,-18.00792 -3.1727,-18.53796 -8.7388,-54.60756 -17.8115,-91.10073 -8.7387,-36.01651 -20.984,-72.50992 -17.8113,-108.57943 2.95,-36.54618 20.7613,-72.88026 26.7169,-109.10867 5.7332,-36.54614 0.168,-72.72225 5.901,-109.10953 5.95583,-36.01653 23.76663,-72.56244 23.76663,-109.10861 0,-36.01653 -17.8118,-72.40403 -29.66763,-108.57945 -12.0782,-36.546155 -17.6434,-72.773927 -20.8161,-90.941083 -0.9835,-6.055837 -1.9669,-12.111675 -2.9504,-18.167512 h -53.43413 l -18.9247,2.578392 c -19.4811,2.772577 -57.38596,7.636763 -95.7361,15.565365 C 760.22073,45.695884 721.8706,56.397064 683.96573,53.624486 645.55994,51.046474 607.37676,35.481109 569.30492,30.276443 530.89911,25.266334 492.88293,30.129761 454.64412,25.119652 416.79492,19.914986 378.38913,4.3499999 339.98332,4.3499999 Z M 154.09452,98.467995 c 21.99271,-2.33871 77.85639,-20.161294 99.84911,-22.500004 47.71215,-11.612903 60.5856,-14.032258 98.62034,-14.032258 38.22026,0 67.73085,29.032262 105.95112,29.032262 38.22026,0 75.95666,-5.806455 114.17693,-5.806455 38.22027,0 73.05344,12.580645 111.27371,12.580645 38.03474,0 96.39205,-15 134.42679,-15 76.12842,-1.56513 56.82282,14.4104 83.21164,61.631555 14.35401,28.6572 22.88731,59.73376 26.59621,90.81032 0,36.36953 -21.31046,72.05477 -21.31046,108.42431 l -13.31947,106.05451 c 0,36.36955 -6.84297,40.57716 3.42148,117.32023 l 9.64838,137.12403 c -36.19012,0.22809 -243.12675,-8.30004 -108.57035,0.68429 -39.48635,-9.67742 -76.06948,0 -114.10422,0 -107.41382,18.87097 -122.40828,18.3871 -160.62855,18.3871 -38.22027,0 -71.60183,10.16129 -109.82209,10.16129 -38.22027,0 -48.37602,-2.90323 -103.53177,-7.25807 -39.32506,-1.29032 -21.55335,-0.64516 -87.97518,-25.16129 L 110.78807,686.88821 c 0,0 12.97029,-48.22195 -0.53749,-77.69953 -23.025034,-52.43649 -26.580984,-84.71209 -9.67742,-157.82086 8.70968,-52.75552 11.6129,-43.57555 10.64516,-100.20204 V 250.96374 c 9.6942,-26.39557 -1.90192,-69.72663 7.79229,-96.1222 6.53334,-22.33957 18.38927,-41.29205 35.08391,-56.373545 z"
     id="path2"
     inkscape:connector-curvature="0"
     sodipodi:nodetypes="sccccccccsccccccsccccccccccccscccccccccscccccccccccccccccccccccccc"
     inkscape:export-filename="/home/daybringer/Projects/websites/silzpyt.io/border.png"
     inkscape:export-xdpi="96"
     inkscape:export-ydpi="96" />
  <g
     id="crane_stand"
     transform="translate(-84.077034,-12.166505)">
    <g
       id="g1489">
      <rect
         y="99.077415"
         x="335.3486"
         height="611.77405"
         width="11.612904"
         id="rect1451"
         style="opacity:1;fill:#25be5c;fill-opacity:1;fill-rule:nonzero;stroke:none;stroke-width:0;stroke-linecap:square;stroke-linejoin:miter;stroke-miterlimit:4;stroke-dasharray:none;stroke-opacity:1;paint-order:normal" />
      <rect
         y="107.8559"
         x="289.79599"
         height="588.508"
         width="11.612904"
         id="rect1453"
         style="opacity:1;fill:#25be5c;fill-opacity:1;fill-rule:nonzero;stroke:none;stroke-width:0;stroke-linecap:square;stroke-linejoin:miter;stroke-miterlimit:4;stroke-dasharray:none;stroke-opacity:1;paint-order:normal" />
    </g>
    <g
       id="g1498">
      <path
         inkscape:connector-curvature="0"
         id="path1469"
         d="m 298.70227,615.14006 36.62031,-37.90085 -34.35483,-40.64517 37.3218,-37.74697"
         style="fill:none;stroke:#25be5c;stroke-width:6;stroke-linecap:butt;stroke-linejoin:miter;stroke-miterlimit:4;stroke-dasharray:none;stroke-opacity:1"
         sodipodi:nodetypes="cccc" />
      <path
         sodipodi:nodetypes="cccc"
         style="fill:none;stroke:#25be5c;stroke-width:6;stroke-linecap:butt;stroke-linejoin:miter;stroke-miterlimit:4;stroke-dasharray:none;stroke-opacity:1"
         d="m 297.73453,691.1078 36.62031,-37.90085 -34.35483,-40.64517 37.3218,-37.74697"
         id="path1473"
         inkscape:connector-curvature="0" />
      <path
         sodipodi:nodetypes="cccc"
         style="fill:none;stroke:#25be5c;stroke-width:6;stroke-linecap:butt;stroke-linejoin:miter;stroke-miterlimit:4;stroke-dasharray:none;stroke-opacity:1"
         d="m 298.70227,538.49881 36.62031,-37.90085 -34.35483,-40.64517 37.3218,-37.74697"
         id="path1475"
         inkscape:connector-curvature="0" />
      <path
         inkscape:connector-curvature="0"
         id="path1477"
         d="m 302.12375,459.12037 36.62031,-37.90085 -34.35483,-40.64517 37.3218,-37.74697"
         style="fill:none;stroke:#25be5c;stroke-width:6;stroke-linecap:butt;stroke-linejoin:miter;stroke-miterlimit:4;stroke-dasharray:none;stroke-opacity:1"
         sodipodi:nodetypes="cccc" />
      <path
         sodipodi:nodetypes="cccc"
         style="fill:none;stroke:#25be5c;stroke-width:6;stroke-linecap:butt;stroke-linejoin:miter;stroke-miterlimit:4;stroke-dasharray:none;stroke-opacity:1"
         d="m 300.75516,384.53201 36.62031,-37.90085 -34.35483,-40.64517 37.3218,-37.74697"
         id="path1479"
         inkscape:connector-curvature="0" />
      <path
         inkscape:connector-curvature="0"
         id="path1481"
         d="m 299.38657,310.62795 36.62031,-37.90085 -34.35483,-40.64517 37.3218,-37.74697"
         style="fill:none;stroke:#25be5c;stroke-width:6;stroke-linecap:butt;stroke-linejoin:miter;stroke-miterlimit:4;stroke-dasharray:none;stroke-opacity:1"
         sodipodi:nodetypes="cccc" />
      <path
         sodipodi:nodetypes="cccc"
         style="fill:none;stroke:#25be5c;stroke-width:6;stroke-linecap:butt;stroke-linejoin:miter;stroke-miterlimit:4;stroke-dasharray:none;stroke-opacity:1"
         d="m 298.01798,236.72388 36.62031,-37.90085 -34.35483,-40.64517 37.3218,-37.74697"
         id="path1483"
         inkscape:connector-curvature="0" />
    </g>
  </g>
  <g
     id="construction_sign"
     transform="translate(-84.077034,-12.166505)">
    <g
       id="g1537">
      <path
         style="opacity:1;fill:#25be5c;fill-opacity:1;fill-rule:nonzero;stroke:none;stroke-width:0;stroke-linecap:square;stroke-linejoin:miter;stroke-miterlimit:4;stroke-dasharray:none;stroke-opacity:1;paint-order:normal"
         d="m 474.01315,589.43911 h 15.71869 v 110.11136 h -15.71869 z"
         id="rect1485"
         inkscape:connector-curvature="0" />
      <path
         style="opacity:1;fill:#25be54;fill-opacity:1;fill-rule:nonzero;stroke:none;stroke-width:0;stroke-linecap:square;stroke-linejoin:miter;stroke-miterlimit:4;stroke-dasharray:none;stroke-opacity:1;paint-order:normal"
         d="m 622.03598,589.43911 h 15.71868 v 110.11136 h -15.71868 z"
         id="rect1515"
         inkscape:connector-curvature="0" />
    </g>
    <rect
       y="558.70972"
       x="452.90323"
       height="29.032259"
       width="208.06451"
       id="rect1523"
       style="opacity:1;fill:#25be5c;fill-opacity:0.98611109;fill-rule:nonzero;stroke:#25be5c;stroke-width:6;stroke-linecap:square;stroke-linejoin:miter;stroke-miterlimit:4;stroke-dasharray:none;stroke-opacity:1;paint-order:normal" />
    <g
       id="g1533">
      <circle
         style="opacity:1;fill:none;fill-opacity:0.98611109;fill-rule:nonzero;stroke:#25be5c;stroke-width:6;stroke-linecap:square;stroke-linejoin:miter;stroke-miterlimit:4;stroke-dasharray:none;stroke-opacity:1;paint-order:normal"
         id="path1525"
         cx="481.8725"
         cy="539.99298"
         r="12.659492" />
      <circle
         r="12.659492"
         cy="539.99298"
         cx="629.89532"
         id="circle1527"
         style="opacity:1;fill:none;fill-opacity:0.98611109;fill-rule:nonzero;stroke:#25be5c;stroke-width:6;stroke-linecap:square;stroke-linejoin:miter;stroke-miterlimit:4;stroke-dasharray:none;stroke-opacity:1;paint-order:normal"
         inkscape:transform-center-x="64.323908"
         inkscape:transform-center-y="-0.68429689" />
    </g>
    <g
       id="g1563">
      <path
         style="opacity:1;fill:#ffffff;fill-opacity:1;fill-rule:nonzero;stroke:none;stroke-width:6;stroke-linecap:square;stroke-linejoin:miter;stroke-miterlimit:4;stroke-dasharray:none;stroke-opacity:1;paint-order:normal"
         inkscape:transform-center-x="-2.9239235"
         inkscape:transform-center-y="-1.6312054"
         d="m 570.35943,557.2223 -10.1642,31.34917 -19.0787,-0.10467 9.94445,-31.18077 -0.25417,-0.0901 z"
         id="path1547"
         inkscape:connector-curvature="0"
         sodipodi:nodetypes="cccccc" />
      <path
         sodipodi:nodetypes="cccccc"
         inkscape:connector-curvature="0"
         id="path1550"
         d="m 610.81849,557.2223 -10.1642,31.34917 -19.0787,-0.10467 9.94445,-31.18077 -0.25417,-0.0901 z"
         inkscape:transform-center-y="-1.6312054"
         inkscape:transform-center-x="-2.9239235"
         style="opacity:1;fill:#ffffff;fill-opacity:1;fill-rule:nonzero;stroke:none;stroke-width:6;stroke-linecap:square;stroke-linejoin:miter;stroke-miterlimit:4;stroke-dasharray:none;stroke-opacity:1;paint-order:normal" />
      <path
         sodipodi:nodetypes="cccccc"
         inkscape:connector-curvature="0"
         id="path1552"
         d="m 529.90039,557.2223 -10.1642,31.34917 -19.0787,-0.10467 9.94445,-31.18077 -0.25417,-0.0901 z"
         inkscape:transform-center-y="-1.6312054"
         inkscape:transform-center-x="-2.9239235"
         style="opacity:1;fill:#ffffff;fill-opacity:1;fill-rule:nonzero;stroke:none;stroke-width:6;stroke-linecap:square;stroke-linejoin:miter;stroke-miterlimit:4;stroke-dasharray:none;stroke-opacity:1;paint-order:normal" />
      <path
         style="opacity:1;fill:#ffffff;fill-opacity:1;fill-rule:nonzero;stroke:none;stroke-width:6;stroke-linecap:square;stroke-linejoin:miter;stroke-miterlimit:4;stroke-dasharray:none;stroke-opacity:1;paint-order:normal"
         inkscape:transform-center-x="-2.9239235"
         inkscape:transform-center-y="-1.6312054"
         d="m 489.44131,557.2223 -10.1642,31.34917 -19.0787,-0.10467 9.94445,-31.18077 -0.25417,-0.0901 z"
         id="path1554"
         inkscape:connector-curvature="0"
         sodipodi:nodetypes="cccccc" />
      <path
         style="opacity:1;fill:#ffffff;fill-opacity:1;fill-rule:nonzero;stroke:none;stroke-width:6;stroke-linecap:square;stroke-linejoin:miter;stroke-miterlimit:4;stroke-dasharray:none;stroke-opacity:1;paint-order:normal"
         inkscape:transform-center-x="-2.9239235"
         inkscape:transform-center-y="-1.6312054"
         d="m 651.27752,557.2223 -10.1642,31.34917 -19.0787,-0.10467 9.94445,-31.18077 -0.25417,-0.0901 z"
         id="path1556"
         inkscape:connector-curvature="0"
         sodipodi:nodetypes="cccccc" />
    </g>
  </g>
  <g
     id="progress_text"
     transform="translate(-84.077034,-12.166505)">
    <text
       id="text1545"
       y="354.51089"
       x="359.71994"
       style="font-style:normal;font-variant:normal;font-weight:normal;font-stretch:normal;font-size:69.21746063px;line-height:1.25;font-family:Molle;-inkscape-font-specification:Molle;letter-spacing:0px;word-spacing:0px;fill:#242423;fill-opacity:1;stroke:none;stroke-width:0.99999994"
       xml:space="preserve"><tspan
         id="tspan1584"
         style="font-style:normal;font-variant:normal;font-weight:bold;font-stretch:normal;font-size:74.66666412px;font-family:Hack;-inkscape-font-specification:'Hack Bold';fill:#242423;fill-opacity:1;stroke-width:0.99999994"
         y="354.51089"
         x="359.71994"
         sodipodi:role="line">Work</tspan></text>
    <text
       id="text1594"
       y="411.61292"
       x="557.41931"
       style="font-style:normal;font-variant:normal;font-weight:normal;font-stretch:normal;font-size:40px;line-height:1.25;font-family:Molle;-inkscape-font-specification:Molle;letter-spacing:0px;word-spacing:0px;fill:#242423;fill-opacity:1;stroke:none"
       xml:space="preserve"><tspan
         style="font-style:normal;font-variant:normal;font-weight:bold;font-stretch:normal;font-size:74.66666412px;font-family:Hack;-inkscape-font-specification:'Hack Bold';fill:#242423;fill-opacity:1"
         y="411.61292"
         x="557.41931"
         id="tspan1592"
         sodipodi:role="line">in</tspan></text>
    <text
       id="text1598"
       y="483.2258"
       x="600"
       style="font-style:normal;font-variant:normal;font-weight:normal;font-stretch:normal;font-size:40px;line-height:1.25;font-family:Molle;-inkscape-font-specification:Molle;letter-spacing:0px;word-spacing:0px;fill:#242423;fill-opacity:1;stroke:none"
       xml:space="preserve"><tspan
         style="font-style:normal;font-variant:normal;font-weight:bold;font-stretch:normal;font-size:74.66666412px;font-family:Hack;-inkscape-font-specification:'Hack Bold';fill:#242423;fill-opacity:1"
         y="483.2258"
         x="600"
         id="tspan1596"
         sodipodi:role="line">progress</tspan></text>
  </g>
  <circle
     r="8.3515053"
     cy="527.79535"
     cx="545.75775"
     id="right_signal"
     style="opacity:1;fill:#25be54;fill-opacity:1;fill-rule:nonzero;stroke:none;stroke-width:2.60000014;stroke-linecap:square;stroke-linejoin:miter;stroke-miterlimit:4;stroke-dasharray:none;stroke-opacity:1;paint-order:normal"
     inkscape:transform-center-x="29.429118"
     inkscape:transform-center-y="2.3861507" />
  <circle
     inkscape:transform-center-y="2.3861507"
     inkscape:transform-center-x="29.429118"
     style="opacity:1;fill:#25be54;fill-opacity:1;fill-rule:nonzero;stroke:none;stroke-width:2.60000014;stroke-linecap:square;stroke-linejoin:miter;stroke-miterlimit:4;stroke-dasharray:none;stroke-opacity:1;paint-order:normal"
     id="left_signal"
     cx="397.69324"
     cy="527.79535"
     r="8.3515053" />
</svg>
