<?xml version="1.0" encoding="UTF-8" standalone="no"?>
<!-- Created with Inkscape (http://www.inkscape.org/) -->

<svg
   xmlns:dc="http://purl.org/dc/elements/1.1/"
   xmlns:cc="http://creativecommons.org/ns#"
   xmlns:rdf="http://www.w3.org/1999/02/22-rdf-syntax-ns#"
   xmlns:svg="http://www.w3.org/2000/svg"
   xmlns="http://www.w3.org/2000/svg"
   xmlns:sodipodi="http://sodipodi.sourceforge.net/DTD/sodipodi-0.dtd"
   xmlns:inkscape="http://www.inkscape.org/namespaces/inkscape"
   width="194.1606mm"
   height="45.215012mm"
   viewBox="0 0 194.1606 45.215012"
   version="1.1"
   id="svg8"
   inkscape:version="0.92.4 5da689c313, 2019-01-14"
   sodipodi:docname="logodraft.svg">
  <defs
     id="defs2">
    <inkscape:path-effect
       effect="bspline"
       id="path-effect825"
       is_visible="true"
       weight="33.333333"
       steps="2"
       helper_size="0"
       apply_no_weight="true"
       apply_with_weight="true"
       only_selected="false" />
  </defs>
  <sodipodi:namedview
     id="base"
     pagecolor="#ffffff"
     bordercolor="#666666"
     borderopacity="1.0"
     inkscape:pageopacity="0.0"
     inkscape:pageshadow="2"
     inkscape:zoom="0.70710678"
     inkscape:cx="265.76081"
     inkscape:cy="-145.48765"
     inkscape:document-units="mm"
     inkscape:current-layer="g888"
     showgrid="false"
     inkscape:snap-global="false"
     inkscape:window-width="1920"
     inkscape:window-height="1025"
     inkscape:window-x="0"
     inkscape:window-y="0"
     inkscape:window-maximized="1" />
  <metadata
     id="metadata5">
    <rdf:RDF>
      <cc:Work
         rdf:about="">
        <dc:format>image/svg+xml</dc:format>
        <dc:type
           rdf:resource="http://purl.org/dc/dcmitype/StillImage" />
        <dc:title></dc:title>
      </cc:Work>
    </rdf:RDF>
  </metadata>
  <g
     inkscape:label="Layer 1"
     inkscape:groupmode="layer"
     id="layer1"
     transform="translate(-5.5839755,-61.290693)">
    <g
       id="g867"
       transform="matrix(1.5159679,0,0,1.5150565,-36.271096,-57.979113)"
       style="stroke-width:0.65984297">
      <path
         sodipodi:nodetypes="cccccccccccccccccccc"
         inkscape:original-d="m 56.575849,113.39498 c 0.0072,-0.73084 0.01408,-1.46188 0.02072,-2.19282 -0.0036,-0.6859 -0.0074,-1.37101 -0.01145,-2.05616 0.01657,-0.26529 0.03285,-0.53009 0.0489,-0.79506 -0.01513,-0.35666 -0.0305,-0.71228 -0.04616,-1.0683 0.02249,-0.37025 0.0447,-0.73988 0.06665,-1.10937 0.172785,-0.30062 0.345353,-0.60106 0.51761,-0.90116 0.08776,-0.0969 0.175459,-0.19367 0.263033,-0.29037 0.222215,-0.19272 0.44373,-0.3848 0.664628,-0.57631 0.186702,-0.0425 0.373514,-0.0846 0.560274,-0.1269 0.191596,-0.0433 0.383141,-0.0868 0.574668,-0.12985 0.424757,0.0641 0.848207,0.12827 1.271914,0.19281 0.233797,0.14219 0.467088,0.28449 0.700597,0.42736 0.18329,0.18789 0.365867,0.37558 0.548509,0.56388 0.03392,0.0783 0.06756,0.15688 0.100937,0.23569 0.07079,0.13088 0.141315,0.26203 0.211619,0.39353 0.07815,0.27856 0.155934,0.55703 0.233554,0.83613 -0.0087,0.38208 -0.01772,0.76394 -0.02699,1.14655 -0.0037,0.28076 -0.0078,0.56168 -0.01184,0.84271 -0.0032,0.22031 -0.0062,0.44069 -0.0096,0.66108"
         inkscape:path-effect="#path-effect825"
         inkscape:connector-curvature="0"
         id="path823"
         d="m 56.575849,113.39498 c 0.0069,-0.73084 0.01381,-1.46188 0.01536,-2.1703 0.0015,-0.70842 -0.0023,-1.39353 0.004,-1.86876 0.0063,-0.47523 0.02254,-0.74003 0.02298,-1.05083 4.43e-4,-0.3108 -0.01492,-0.66642 -0.01149,-1.02957 0.0034,-0.36314 0.02564,-0.73277 0.123087,-1.06785 0.09745,-0.33507 0.270016,-0.63551 0.400072,-0.83398 0.130057,-0.19847 0.217734,-0.29526 0.372643,-0.43996 0.154909,-0.14469 0.376424,-0.33677 0.580238,-0.45368 0.203815,-0.11692 0.390581,-0.15922 0.57976,-0.20202 0.189179,-0.0428 0.380771,-0.0861 0.688867,-0.0755 0.308096,0.0106 0.731543,0.0747 1.060224,0.17812 0.32868,0.10337 0.561968,0.24567 0.77033,0.41103 0.208361,0.16535 0.390936,0.35304 0.499189,0.48628 0.108252,0.13324 0.141903,0.21182 0.193985,0.31668 0.05208,0.10486 0.122608,0.23601 0.196836,0.441 0.07423,0.20499 0.152012,0.48346 0.186483,0.814 0.03447,0.33054 0.02548,0.7124 0.01901,1.04409 -0.0065,0.33169 -0.01042,0.61261 -0.014,0.86328 -0.0036,0.25067 -0.0068,0.47105 -0.01,0.69144"
         style="fill:none;stroke:#309c60;stroke-width:0;stroke-linecap:butt;stroke-linejoin:miter;stroke-miterlimit:4;stroke-dasharray:none;stroke-opacity:1"
         transform="matrix(0.19826522,0,0,0.19598304,113.52046,71.369593)" />
      <g
         id="g888"
         transform="matrix(2.465545,0,0,2.4585138,-104.22394,-202.71475)"
         style="stroke-width:0.26800802">
        <text
           id="text817"
           y="124.19788"
           x="63.921276"
           style="font-style:normal;font-variant:normal;font-weight:normal;font-stretch:normal;font-size:8.44157791px;line-height:1.25;font-family:monospace;-inkscape-font-specification:monospace;letter-spacing:0px;word-spacing:0px;fill:#000000;fill-opacity:1;stroke:none;stroke-width:0.07091043"
           xml:space="preserve"
           transform="scale(1.0013958,0.99860614)"><tspan
             style="font-style:normal;font-variant:normal;font-weight:bold;font-stretch:normal;font-family:C059;-inkscape-font-specification:'C059 Bold';stroke-width:0.07091043"
             y="124.19788"
             x="63.921276"
             id="tspan815"
             sodipodi:role="line">Sylzpit.io</tspan></text>
        <path
           style="opacity:1;fill:#005377;fill-opacity:0;fill-rule:evenodd;stroke:#666666;stroke-width:0;stroke-linecap:square;stroke-linejoin:miter;stroke-miterlimit:4;stroke-dasharray:none;stroke-opacity:1;paint-order:normal"
           inkscape:transform-center-x="0.081156193"
           inkscape:transform-center-y="0.25716361"
           d="m 62.720144,123.48986 -1.694024,-0.002 -1.742198,0.001 0.656656,-2.01278 2.1237,3.9e-4 z"
           id="path829"
           inkscape:connector-curvature="0"
           sodipodi:nodetypes="cccccc" />
        <path
           sodipodi:nodetypes="cccccccccccccccccsccccccccccccccccccccccccccscc"
           style="opacity:1;fill:#b2c963;fill-opacity:1;fill-rule:evenodd;stroke:#4f4f4f;stroke-width:0.44650137;stroke-linecap:square;stroke-linejoin:miter;stroke-miterlimit:4;stroke-dasharray:none;stroke-opacity:1;paint-order:normal"
           d="m 53.747371,126.16108 -0.05358,3.9e-4 0.0025,-2.2643 c 0.0015,-1.23595 0.01187,-3.05213 0.02365,-4.03599 0.01952,-1.63442 0.02596,-1.81343 0.07443,-2.07399 0.14368,-0.77252 0.524685,-1.49819 1.068731,-2.03553 0.617942,-0.61031 0.999465,-0.82181 1.783342,-0.98859 0.676194,-0.14385 1.767432,-0.0271 2.469262,0.26399 0.513922,0.21322 1.147035,0.71335 1.492148,1.17872 0.22783,0.30722 0.49371,0.90279 0.613781,1.37488 0.142236,0.55921 0.154071,0.76625 0.135202,2.36478 l -0.01721,1.45827 h 0.40325 0.40325 l 0.32788,1.00458 c 0.180336,0.55253 0.346382,1.06293 0.368994,1.13423 0.02264,0.0713 0.04649,0.1442 0.05311,0.16203 0.0096,0.0257 -0.384486,0.0324 -1.915735,0.0324 -1.060258,0 -1.927425,-0.008 -1.927042,-0.0194 3.92e-4,-0.0108 0.168581,-0.53275 0.373774,-1.16012 l 0.373085,-1.14071 0.377522,-0.007 0.377523,-0.007 0.01957,-1.26316 c 0.02214,-1.42477 0.01102,-1.78306 -0.06658,-2.16374 -0.07474,-0.36637 -0.156305,-0.60054 -0.339775,-0.97545 -0.147429,-0.30123 -0.173583,-0.33724 -0.434748,-0.59845 -0.524106,-0.52422 -0.901357,-0.71658 -1.681803,-0.85758 -0.610641,-0.1103 -1.039658,-0.0916 -1.60042,0.0701 -0.252897,0.0729 -0.551257,0.24515 -0.787177,0.43179 -0.678031,0.5364 -0.951196,1.09823 -1.104663,1.88392 -0.04926,0.25226 -0.05193,0.43397 -0.07669,5.23034 l -0.01982,2.99665 -0.337596,0.004 c -0.180507,-0.003 -0.306989,0.004 -0.339181,-0.002 z m 8.712615,-2.76791 c -7.6e-5,-0.0178 -0.120444,-0.3999 -0.26746,-0.84904 l -0.267304,-0.81663 -0.949122,-0.007 -0.949118,-0.007 -0.135775,0.42159 c -0.07468,0.23187 -0.199099,0.617 -0.276492,0.85584 l -0.140711,0.43423 h 1.493069 c 1.177199,0 1.493038,-0.007 1.492913,-0.0324 z"
           id="path834"
           inkscape:connector-curvature="0" />
        <ellipse
           style="opacity:1;fill:#b2c963;fill-opacity:1;fill-rule:evenodd;stroke:#4f4f4f;stroke-width:0.13400401;stroke-linecap:square;stroke-linejoin:miter;stroke-miterlimit:4;stroke-dasharray:none;stroke-opacity:1;paint-order:normal"
           id="path819"
           cx="57.510227"
           cy="118.36285"
           rx="2.7183485"
           ry="2.6184092" />
        <ellipse
           ry="0.85709798"
           rx="0.88981175"
           cy="118.41995"
           cx="57.469761"
           id="ellipse827"
           style="opacity:1;fill:#005377;fill-opacity:0;fill-rule:evenodd;stroke:#4f4f4f;stroke-width:0.08871065;stroke-linecap:square;stroke-linejoin:miter;stroke-miterlimit:4;stroke-dasharray:none;stroke-opacity:1;paint-order:normal" />
        <path
           inkscape:connector-curvature="0"
           id="path877"
           d="m 59.460358,123.40898 c 0,-0.001 0.0704,-0.22083 0.15643,-0.4869 0.08604,-0.26605 0.209394,-0.64798 0.274132,-0.84872 0.06473,-0.20074 0.118526,-0.36581 0.119543,-0.36683 10e-4,-0.001 0.212101,1e-5 0.469084,0.002 0.256979,0.002 0.674755,0.006 0.928392,0.007 0.253633,0.001 0.469633,0.004 0.479999,0.005 l 0.01887,0.002 0.08962,0.27378 c 0.238381,0.72826 0.346155,1.062 0.404065,1.25128 0.03678,0.12026 0.0397,0.13168 0.03472,0.13659 -0.0063,0.006 -0.06807,0.0129 -0.167118,0.018 -0.103462,0.005 -2.807684,0.0105 -2.807684,0.005 z"
           style="opacity:1;fill:#b2c963;fill-opacity:1;fill-rule:evenodd;stroke:#309c60;stroke-width:0;stroke-linecap:square;stroke-linejoin:miter;stroke-miterlimit:4;stroke-dasharray:none;stroke-opacity:1;paint-order:normal" />
      </g>
    </g>
  </g>
</svg>
